<svg width="107" height="11" viewBox="0 0 107 11" fill="none" xmlns="http://www.w3.org/2000/svg">
<path d="M67.112 6.43095C67.112 6.43095 69.528 10.392 72.196 10.328C74.862 10.264 89.59 6.01396 94.768 4.26396C99.946 2.51396 105.196 1.68096 106.362 1.51396C103.635 1.04596 99.366 -0.193057 93.196 0.179943C86.171 0.605943 77.696 3.68095 67.112 6.43095Z" fill="#17222B"/>
<path d="M39.886 6.43095C39.886 6.43095 37.47 10.392 34.802 10.328C32.136 10.264 17.407 6.01396 12.23 4.26396C7.05198 2.51396 1.80199 1.68096 0.635986 1.51396C3.36299 1.04596 7.632 -0.193057 13.802 0.179943C20.827 0.605943 29.302 3.68095 39.886 6.43095Z" fill="#17222B"/>
</svg>
