<svg width="278" height="397" viewBox="0 0 278 397" fill="none" xmlns="http://www.w3.org/2000/svg">
<path d="M209.786 200C208.986 194.4 209.453 180 209.786 173.5L201.786 170L179.286 186C178.786 200.833 178.586 232.2 181.786 239C184.986 245.8 192.453 248.167 195.786 248.5C194.953 247.5 193.486 243.7 194.286 236.5C195.486 239.3 199.786 243 201.786 244.5C200.586 242.1 201.286 234.167 201.786 230.5C202.986 233.7 209.286 236.5 212.286 237.5C209.886 232.7 207.953 224.5 207.286 221C209.286 223.8 216.12 230.167 219.286 233C216.453 224.333 210.586 205.6 209.786 200Z" fill="#343D45"/>
<path d="M205.107 139.862C207.312 133.679 216.32 127.916 220.094 130.114C223.867 132.316 225.966 143.112 224.394 149.922C222.819 156.736 216.536 168.994 214.331 171.404C212.13 173.811 203.957 178.742 198.923 177.379L205.107 139.862Z" fill="#FAD4AF"/>
<path d="M207.312 136.082C206.357 137.277 205.573 138.561 205.107 139.866L198.923 177.386C202.169 178.266 206.716 176.523 210.133 174.53L207.312 136.082Z" fill="#F09E78"/>
<path d="M72.8903 139.862C70.6887 133.679 61.6803 127.916 57.9071 130.114C54.1305 132.316 52.0384 143.112 53.61 149.922C55.1816 156.736 61.468 168.994 63.6696 171.404C65.8712 173.811 74.0478 178.742 79.0741 177.379L72.8903 139.862Z" fill="#FAD4AF"/>
<path d="M70.6887 136.082C71.6474 137.277 72.4247 138.561 72.8903 139.866L79.0741 177.386C75.8282 178.266 71.2811 176.523 67.8674 174.53L70.6887 136.082Z" fill="#F09E78"/>
<path d="M68 201.5C68.8 195.9 68.3333 181.5 68 175L76 171.5L98.5 187.5C99 202.333 99.2 233.7 96 240.5C92.8 247.3 85.3333 249.667 82 250C82.8333 249 84.3 245.2 83.5 238C82.3 240.8 78 244.5 76 246C77.2 243.6 76.5 235.667 76 232C74.8 235.2 68.5 238 65.5 239C67.9 234.2 69.8333 226 70.5 222.5C68.5 225.3 61.6667 231.667 58.5 234.5C61.3333 225.833 67.2 207.1 68 201.5Z" fill="#343D45"/>
<path d="M91.1537 157.89C91.1537 157.89 94.927 201.905 95.7693 223.079C96.6082 244.252 98.2826 258.291 73.339 276.743C48.3919 295.187 34.559 303.778 26.8037 309.863C19.0484 315.94 15.9018 319.501 12.7586 325.791C9.61195 332.081 1.4663 349.594 2.48322 350.943C8.35533 358.702 67.3606 394.123 138.997 394.123C210.63 394.123 269.645 358.699 275.511 350.943C276.534 349.594 268.382 332.081 265.239 325.791C262.092 319.501 258.949 315.94 251.194 309.863C243.438 303.782 229.602 295.187 204.662 276.743C179.715 258.291 181.396 244.252 182.228 223.079C183.067 201.905 186.844 157.89 186.844 157.89H91.1537Z" fill="url(#paint0_linear_13_120)"/>
<path d="M165.899 240.26C170.943 234.669 176.736 228.773 182.345 220.617C183.348 198.686 186.847 157.893 186.847 157.893H91.1537C91.1537 157.893 94.6564 198.679 95.6562 220.613C101.268 228.769 107.055 234.669 112.098 240.26C123.784 253.223 131.943 257.356 139 257.356C146.061 257.356 154.216 253.223 165.899 240.26Z" fill="#F09E78"/>
<path d="M138.997 21.8484C75.3898 21.8484 65.5802 65.0315 65.5802 89.7663C65.5802 114.501 67.7887 137.976 76.6054 171.514C84.7099 202.346 100.412 213.433 112.098 223.287C123.784 233.142 131.943 236.285 139 236.285C146.057 236.285 154.213 233.142 165.896 223.287C177.582 213.433 193.287 202.346 201.395 171.514C210.209 137.976 212.421 114.501 212.421 89.7663C212.424 65.035 202.607 21.8484 138.997 21.8484Z" fill="url(#paint1_linear_13_120)"/>
<path d="M138.997 21.8484C75.3898 21.8484 65.5802 65.0315 65.5802 89.7663C65.5802 91.9611 65.6041 94.1421 65.6452 96.3232L80.6388 82.8396L97.1835 74.04C103.415 64.2954 118.775 48.1 122.233 49.045C125.691 49.9866 146.437 80.638 161.218 92.8102C175.996 104.982 200.947 109.413 200.947 109.413L212.308 99.1411C212.386 96.0219 212.424 92.9026 212.424 89.7663C212.424 65.0349 202.607 21.8484 138.997 21.8484Z" fill="#E6C8BA"/>
<path d="M219.022 47.4768H58.9788L57.4106 91.6495L62.122 129.933L69.3876 136.685C69.3876 136.685 82.8747 104.229 82.8747 100.144C82.8747 96.0561 81.1455 76.0909 81.1455 76.0909L97.1835 74.0434L99.9088 68.5411C99.9088 68.5411 138.946 60.683 180.817 74.0434L196.855 76.0909C196.855 76.0909 195.126 96.0561 195.126 100.144C195.126 104.226 208.62 136.685 208.62 136.685L215.882 129.933L220.594 91.6495L219.022 47.4768Z" fill="url(#paint2_linear_13_120)"/>
<path d="M162.636 47.4768H99.8986V68.5685L99.9088 68.5377C99.9088 68.5377 128.307 62.8368 162.636 69.4382V47.4768Z" fill="#171B1F"/>
<path d="M195.123 100.144C195.123 100.432 195.195 100.88 195.328 101.439C198.42 101.274 205.008 100.733 207.911 99.0418L195.448 93.8614C195.256 96.6553 195.123 99.0144 195.123 100.144Z" fill="#171B1F"/>
<path d="M58.7425 102.531C56.0478 90.5504 45.9814 55.1773 45.9814 55.1773C55.8869 42.4436 66.8915 35.3731 82.4569 32.069C88.7433 20.7493 100.693 7.54301 122.387 0C148.166 2.20161 218.491 37.2563 220.59 40.2454C222.686 43.2311 220.59 91.6529 220.59 91.6529L207.908 99.0418C207.908 99.0418 182.598 97.7852 166.406 87.5647C150.214 77.3475 125.685 49.99 122.23 49.0484C118.772 48.1034 103.415 64.2988 97.1799 74.0434L80.7278 75.9334L58.7425 102.531Z" fill="url(#paint3_linear_13_120)"/>
<path opacity="0.1" d="M160.246 62.5149C160.246 62.5149 186.371 72.9511 221.364 67.8905C221.487 62.2547 221.563 56.4956 221.511 51.6883C208.377 55.9203 182.947 62.9634 160.246 62.5149Z" fill="white"/>
<path d="M94.9783 68.2911C94.9783 68.2911 100.255 48.8875 108.387 42.1834C108.387 42.1834 100.926 58.2041 94.9783 68.2911Z" fill="#171B1F"/>
<path d="M92.4103 56.8791C92.4103 56.8791 94.5469 43.4674 98.9707 34.1953C98.9707 34.1953 96.1904 49.3155 92.4103 56.8791Z" fill="#171B1F"/>
<path d="M88.8426 43.1832C88.8426 43.1832 89.7705 35.1231 92.4103 29.2031C92.4103 29.2031 91.6229 36.6879 88.8426 43.1832Z" fill="#171B1F"/>
<path d="M267.488 324.664C264.153 317.998 260.853 314.232 252.752 307.88C249.324 305.196 244.863 302.121 238.689 297.862C230.91 292.496 220.248 285.138 206.158 274.719C195.28 266.673 189.737 259.568 186.963 252.247L138.997 293.445L139.072 293.51H138.928L138.997 293.445L91.0306 252.247C88.2572 259.571 82.7104 266.676 71.8427 274.719C57.7736 285.121 47.1215 292.472 39.3457 297.831C33.1517 302.107 28.6869 305.192 25.2561 307.88C17.1515 314.228 13.8439 317.998 10.5055 324.664C-1.84815 349.375 -0.218286 351.536 0.47678 352.46C7.09532 361.205 67.7099 396.64 138.997 396.64C210.301 396.64 270.905 361.202 277.517 352.46C278.216 351.543 279.849 349.386 267.488 324.664Z" fill="#E5EBF2"/>
<path d="M95.6186 244.458L138.997 293.448L98.5975 347.345L82.6692 262.697L95.6186 244.458Z" fill="#D7DCE3"/>
<path d="M182.375 244.458L138.997 293.448L179.4 347.345L195.332 262.697L182.375 244.458Z" fill="#D7DCE3"/>
<path d="M138.997 396.64C147.338 396.64 155.518 396.14 163.499 395.27L147.564 322.018L161.321 298.331V281.142H153.319L138.994 293.445L139.069 293.51H138.925L138.994 293.445L124.671 281.142H116.666V298.331L130.427 322.018L114.492 395.27C122.473 396.14 130.663 396.64 138.997 396.64Z" fill="url(#paint4_linear_13_120)"/>
<path d="M95.6186 244.458L138.997 293.448L98.5975 326.842L82.6692 262.697L95.6186 244.458Z" fill="white"/>
<path d="M83.7442 264.029C80.738 267.467 76.8828 270.99 71.8427 274.719C57.7736 285.121 47.1215 292.472 39.3457 297.831C33.1517 302.107 28.6869 305.192 25.2561 307.88C17.1515 314.228 13.8439 317.998 10.5055 324.664C-1.84815 349.375 -0.218286 351.536 0.47678 352.46C6.74607 360.746 61.5434 392.993 127.944 396.335L83.7442 264.029Z" fill="url(#paint5_linear_13_120)"/>
<path d="M129.071 396.39C129.293 396.356 129.413 396.335 129.413 396.335L87.8463 255.404C87.8463 255.404 74.7564 267.409 73.1814 269.141C71.6098 270.874 71.7708 272.915 71.8427 274.719C71.9214 276.52 72.394 336.902 72.394 340.199C72.394 343.503 73.8114 345.862 76.3212 347.591C78.8378 349.32 104.466 363.937 106.038 365.043C107.609 366.139 106.976 367.714 105.719 367.245C104.466 366.772 63.2759 350.58 59.9752 349.95C56.671 349.32 55.2569 352.464 54.6303 355.138C54.1373 357.223 61.0092 372.018 67.412 385.519C85.7577 391.1 106.767 395.376 129.071 396.39Z" fill="#273852"/>
<path d="M182.375 244.458L138.997 293.448L179.4 326.842L195.332 262.697L182.375 244.458Z" fill="white"/>
<path d="M194.253 264.029C197.263 267.467 201.115 270.99 206.155 274.719C220.227 285.121 230.876 292.472 238.652 297.831C244.846 302.107 249.314 305.192 252.745 307.88C260.846 314.228 264.153 317.998 267.488 324.664C279.845 349.375 278.219 351.536 277.524 352.46C271.248 360.746 216.457 392.993 150.053 396.335L194.253 264.029Z" fill="url(#paint6_linear_13_120)"/>
<path d="M148.93 396.39C148.707 396.356 148.588 396.335 148.588 396.335L190.154 255.404C190.154 255.404 203.244 267.409 204.816 269.141C206.388 270.874 206.23 272.915 206.155 274.719C206.076 276.52 205.603 336.902 205.603 340.199C205.603 343.503 204.189 345.862 201.676 347.591C199.16 349.32 173.535 363.937 171.96 365.043C170.391 366.139 171.021 367.714 172.275 367.245C173.535 366.772 214.725 350.58 218.022 349.95C221.323 349.32 222.744 352.464 223.371 355.138C223.864 357.223 216.992 372.018 210.592 385.519C192.24 391.1 171.23 395.376 148.93 396.39Z" fill="#273852"/>
<path d="M147.564 322.018H130.43L129.584 325.897H148.406L147.564 322.018Z" fill="#611717"/>
<path d="M138.865 180.695C143.07 180.695 146.432 176.897 146.729 175C145.429 175.558 141.651 177.175 138.863 177.175C136.077 177.175 132.299 175.557 131 175C131.293 176.897 134.657 180.695 138.865 180.695Z" fill="#E08464"/>
<defs>
<linearGradient id="paint0_linear_13_120" x1="138.999" y1="272.445" x2="138.999" y2="186.328" gradientUnits="userSpaceOnUse">
<stop stop-color="#FAD4AF"/>
<stop offset="1" stop-color="#F09E78"/>
</linearGradient>
<linearGradient id="paint1_linear_13_120" x1="139.002" y1="141.479" x2="139.002" y2="17.7143" gradientUnits="userSpaceOnUse">
<stop stop-color="#FAD4AF"/>
<stop offset="1" stop-color="#F09E78"/>
</linearGradient>
<linearGradient id="paint2_linear_13_120" x1="139" y1="23.3515" x2="139" y2="122.626" gradientUnits="userSpaceOnUse">
<stop stop-color="#1C242B"/>
<stop offset="1" stop-color="#343D45"/>
</linearGradient>
<linearGradient id="paint3_linear_13_120" x1="133.753" y1="23.3515" x2="133.753" y2="122.626" gradientUnits="userSpaceOnUse">
<stop stop-color="#1C242B"/>
<stop offset="1" stop-color="#343D45"/>
</linearGradient>
<linearGradient id="paint4_linear_13_120" x1="138.998" y1="389.716" x2="138.998" y2="308.369" gradientUnits="userSpaceOnUse">
<stop stop-color="#AD2828"/>
<stop offset="1" stop-color="#8C0F0F"/>
</linearGradient>
<linearGradient id="paint5_linear_13_120" x1="63.974" y1="389.288" x2="63.974" y2="281.807" gradientUnits="userSpaceOnUse">
<stop stop-color="#111924"/>
<stop offset="1" stop-color="#223147"/>
</linearGradient>
<linearGradient id="paint6_linear_13_120" x1="214.024" y1="389.288" x2="214.024" y2="281.807" gradientUnits="userSpaceOnUse">
<stop stop-color="#111924"/>
<stop offset="1" stop-color="#223147"/>
</linearGradient>
</defs>
</svg>
