<svg width="117" height="8" viewBox="0 0 117 8" fill="none" xmlns="http://www.w3.org/2000/svg">
<path d="M0 6.92227C0 6.92227 11.636 4.41309 22 3.00409C35.511 2.67809 38.341 4.92227 38.341 4.92227C38.341 5.57427 38.341 7.77908 38.341 7.77908C38.341 7.77908 40.145 4.77409 41.5 2.57309C34.013 0.591089 28.628 -0.57791 19.46 0.29109C10.29 1.16109 2 3.42227 2 3.42227C2 3.42227 10.5 2.57309 12.434 3.00409C11 3.42227 6 3.42227 0 6.92227Z" fill="#17222B"/>
<path d="M117 6.92227C117 6.92227 105.364 4.41309 95 3.00409C81.489 2.67809 78.659 4.92227 78.659 4.92227C78.659 5.57427 78.659 7.77908 78.659 7.77908C78.659 7.77908 76.855 4.77409 75.5 2.57309C82.987 0.591089 88.372 -0.57791 97.54 0.29109C106.71 1.16109 115 3.42227 115 3.42227C115 3.42227 106.5 2.57309 104.566 3.00409C106 3.42227 111 3.42227 117 6.92227Z" fill="#17222B"/>
</svg>
