<svg width="119" height="26" viewBox="0 0 119 26" fill="none" xmlns="http://www.w3.org/2000/svg">
<path d="M95.114 5.07463C88.981 6.37463 82.091 11.3146 78.564 17.2296C81.06 21.4616 86.975 25.7456 97.934 24.9866C108.892 24.2286 114.09 10.9036 114.429 8.00464C111.662 6.37464 103.939 4.47663 95.114 5.07463Z" fill="white"/>
<path d="M95.114 5.07464C91.989 5.73764 88.671 7.35364 85.695 9.55564C85.341 11.0426 85.273 12.6226 85.619 14.2186C86.848 19.8906 92.408 23.4906 98.034 22.2696C103.664 21.0476 107.228 15.4666 105.999 9.79964C105.617 8.04664 104.79 6.52565 103.707 5.24865C101.075 4.97265 98.17 4.86864 95.114 5.07464Z" fill="url(#paint0_linear_13_214)"/>
<path d="M100.233 11.0486C100.768 13.5086 99.222 15.9346 96.775 16.4646C94.329 16.9956 91.917 15.4306 91.382 12.9696C90.847 10.5076 92.393 8.08462 94.84 7.55062C97.285 7.02262 99.7 8.58762 100.233 11.0486Z" fill="#3B1510"/>
<path d="M95.114 5.07464C91.989 5.73764 88.671 7.35364 85.695 9.55564C85.341 11.0426 85.273 12.6226 85.619 14.2186C85.646 14.3496 85.705 14.4636 85.742 14.5936C89.149 12.6416 96.692 9.08464 105.832 9.21964C105.407 7.71264 104.664 6.38165 103.708 5.24865C101.075 4.97265 98.17 4.86864 95.114 5.07464Z" fill="#C4B2A0"/>
<path d="M76.665 18.3406C76.665 18.3406 85.779 7.67864 96.143 6.26964C109.654 5.94364 113.668 8.98163 113.668 8.98163C113.668 9.63363 113.341 11.4756 113.341 11.4756C113.341 11.4756 116.761 8.11964 118.116 5.91864C110.629 3.93664 103.628 3.11864 94.46 3.98764C85.29 4.85764 76.933 9.52263 76.933 9.52263C76.933 9.52263 82.59 7.43164 87.434 6.70064C84.301 8.57364 78.331 13.4566 76.665 18.3406Z" fill="#17222B"/>
<path d="M84.846 22.8656C87.003 23.7686 101.244 27.7306 109.621 18.0286C107.66 22.0036 98.574 29.7896 84.846 22.8656Z" fill="#F09E78"/>
<path d="M104.038 10.6426C104.038 11.8806 102.813 12.8886 101.299 12.8886C99.786 12.8886 98.559 11.8806 98.559 10.6426C98.559 9.40064 99.787 8.39763 101.299 8.39763C102.814 8.39663 104.038 9.40064 104.038 10.6426Z" fill="white"/>
<path d="M83.692 3.28364C83.692 3.28364 92.237 0.355647 104.445 1.16865C98.098 -0.623353 89.468 0.409637 88.71 0.464637C87.952 0.517637 85.185 1.81964 83.692 3.28364Z" fill="#F09E78"/>
<path d="M23.004 5.07463C29.136 6.37463 36.026 11.3146 39.553 17.2296C37.059 21.4616 31.144 25.7456 20.183 24.9866C9.223 24.2286 4.02701 10.9036 3.68901 8.00464C6.45701 6.37464 14.178 4.47663 23.004 5.07463Z" fill="white"/>
<path d="M23.004 5.07464C26.129 5.73764 29.447 7.35364 32.422 9.55564C32.776 11.0426 32.845 12.6226 32.499 14.2186C31.268 19.8906 25.709 23.4906 20.084 22.2696C14.454 21.0476 10.89 15.4666 12.119 9.79964C12.501 8.04664 13.33 6.52565 14.411 5.24865C17.043 4.97265 19.946 4.86864 23.004 5.07464Z" fill="url(#paint1_linear_13_214)"/>
<path d="M17.885 11.0486C17.351 13.5086 18.897 15.9346 21.342 16.4646C23.787 16.9956 26.2 15.4306 26.735 12.9696C27.27 10.5076 25.724 8.08462 23.277 7.55062C20.833 7.02262 18.42 8.58762 17.885 11.0486Z" fill="#3B1510"/>
<path d="M23.004 5.07464C26.129 5.73764 29.447 7.35364 32.422 9.55564C32.776 11.0426 32.845 12.6226 32.499 14.2186C32.471 14.3496 32.413 14.4636 32.377 14.5936C28.97 12.6416 21.429 9.08464 12.286 9.21964C12.711 7.71264 13.454 6.38165 14.41 5.24865C17.043 4.97265 19.946 4.86864 23.004 5.07464Z" fill="#C4B2A0"/>
<path d="M41.457 18.3406C41.457 18.3406 32.338 7.67864 21.975 6.26964C8.46401 5.94364 4.451 8.98163 4.451 8.98163C4.451 9.63363 4.77701 11.4756 4.77701 11.4756C4.77701 11.4756 1.355 8.11964 0 5.91864C7.487 3.93664 14.491 3.11864 23.659 3.98764C32.828 4.85764 41.183 9.52263 41.183 9.52263C41.183 9.52263 35.525 7.43164 30.684 6.70064C33.817 8.57364 39.786 13.4566 41.457 18.3406Z" fill="#17222B"/>
<path d="M33.273 22.8656C31.116 23.7686 16.873 27.7306 8.496 18.0286C10.458 22.0036 19.544 29.7896 33.273 22.8656Z" fill="#F09E78"/>
<path d="M25.068 13.2366C25.068 14.4756 26.295 15.4836 27.807 15.4836C29.321 15.4836 30.546 14.4756 30.546 13.2366C30.546 11.9946 29.32 10.9906 27.807 10.9906C26.294 10.9906 25.068 11.9946 25.068 13.2366Z" fill="white"/>
<path d="M34.426 3.28364C34.426 3.28364 25.881 0.355647 13.673 1.16865C20.022 -0.623353 28.652 0.409637 29.41 0.464637C30.167 0.517637 32.935 1.81964 34.426 3.28364Z" fill="#F09E78"/>
<defs>
<linearGradient id="paint0_linear_13_214" x1="95.8163" y1="19.3458" x2="95.8163" y2="4.17414" gradientUnits="userSpaceOnUse">
<stop stop-color="#7D4C36"/>
<stop offset="1" stop-color="#542624"/>
</linearGradient>
<linearGradient id="paint1_linear_13_214" x1="22.3014" y1="19.3458" x2="22.3014" y2="4.17414" gradientUnits="userSpaceOnUse">
<stop stop-color="#7D4C36"/>
<stop offset="1" stop-color="#542624"/>
</linearGradient>
</defs>
</svg>
