<svg width="39" height="11" viewBox="0 0 39 11" fill="none" xmlns="http://www.w3.org/2000/svg">
<path d="M19.3643 8.34702C22.4653 8.34702 31.5013 10.288 34.1693 10.58C36.8383 10.871 40.3423 9.808 37.9063 6.698C34.2183 1.99 23.8323 0 19.3633 0C14.8953 0 4.50827 1.99 0.821268 6.698C-1.61473 9.807 1.88926 10.871 4.55726 10.58C7.22626 10.288 16.2613 8.34702 19.3643 8.34702Z" fill="#73102A"/>
<path d="M34.1693 10.58C34.4823 10.614 34.8052 10.627 35.1302 10.623C31.6252 6.29102 23.1112 4.44 19.3633 4.44C15.6143 4.44 7.10125 6.29102 3.59625 10.623C3.92125 10.627 4.24525 10.614 4.55725 10.58C7.22625 10.288 16.2613 8.34702 19.3643 8.34702C22.4653 8.34702 31.5013 10.288 34.1693 10.58Z" fill="#EB5050"/>
<path d="M19.3633 2.08801C22.8703 2.08801 26.1792 1.929 29.1462 1.655C25.4612 0.521999 21.6423 0 19.3633 0C17.0843 0 13.2652 0.521999 9.58124 1.655C12.5472 1.929 15.8553 2.08801 19.3633 2.08801Z" fill="white"/>
</svg>
