<svg width="36" height="21" viewBox="0 0 36 21" fill="none" xmlns="http://www.w3.org/2000/svg">
<path d="M18.211 0.959961C1.43003 0.959961 -0.634957 16.153 0.941043 18.136C2.51504 20.117 15.328 20.448 18.211 20.448C21.095 20.448 33.905 20.118 35.48 18.136C37.056 16.153 34.995 0.959961 18.211 0.959961Z" fill="#73102A"/>
<path d="M18.2111 9.10596C9.14306 9.10596 3.66206 12.162 0.522062 15.709C0.475062 16.871 0.637045 17.755 0.942045 18.136C2.51605 20.117 15.3291 20.448 18.2121 20.448C21.0961 20.448 33.906 20.118 35.481 18.136C35.786 17.755 35.9491 16.871 35.9021 15.709C32.7611 12.165 27.2781 9.10596 18.2111 9.10596Z" fill="#EB5050"/>
<path d="M28.5601 3.59998C25.9821 2.01998 22.6151 0.959961 18.2101 0.959961C13.9731 0.959961 10.6771 1.93397 8.13806 3.41397C13.0801 4.67197 20.2941 5.55998 28.5601 3.59998Z" fill="white"/>
</svg>
