<svg width="44" height="20" viewBox="0 0 44 20" fill="none" xmlns="http://www.w3.org/2000/svg">
<path d="M22.211 19.778C42.437 19.778 44.924 4.58495 43.026 2.60295C41.126 0.620951 25.684 0.289963 22.211 0.289963C18.737 0.289963 3.29501 0.619951 1.39701 2.60295C-0.502985 4.58495 1.98301 19.778 22.211 19.778Z" fill="#73102A"/>
<path d="M22.211 5.24495C31.037 5.24495 37.859 4.23697 43.088 2.70897C43.065 2.68097 43.051 2.62895 43.025 2.60295C41.125 0.620951 25.683 0.289963 22.21 0.289963C18.736 0.289963 3.29397 0.619951 1.39597 2.60295C1.36997 2.62795 1.35798 2.67997 1.33398 2.70897C6.56298 4.23697 13.386 5.24495 22.211 5.24495Z" fill="white"/>
<path d="M22.211 6.89894C13.282 6.89894 7.81899 9.86094 4.65399 13.3389C7.81799 16.8159 13.282 19.777 22.211 19.777C31.14 19.777 36.602 16.8149 39.766 13.3389C36.602 9.86094 31.14 6.89894 22.211 6.89894Z" fill="#EB5050"/>
</svg>
