<svg width="39" height="8" viewBox="0 0 39 8" fill="none" xmlns="http://www.w3.org/2000/svg">
<path d="M3.36599 1.01901C3.36599 1.01901 3.45801 1.107 3.62701 1.272C3.793 1.403 3.995 1.606 4.325 1.854C4.688 2.093 5.091 2.418 5.626 2.733C6.18 3.028 6.75199 3.432 7.49599 3.733C8.24299 4.019 8.99199 4.44199 9.90499 4.69299C10.814 4.93799 11.721 5.338 12.771 5.488C13.81 5.644 14.86 5.93201 15.976 6.00201C17.095 6.06801 18.231 6.13599 19.367 6.20199C20.521 6.13499 21.674 6.06398 22.81 5.99798C23.41 5.99298 23.908 5.85301 24.438 5.76501C24.959 5.67001 25.472 5.57699 25.979 5.48599C26.999 5.34099 27.927 4.93599 28.831 4.69299C29.744 4.44199 30.491 4.019 31.241 3.733C31.984 3.432 32.556 3.02798 33.109 2.73498C33.645 2.41798 34.046 2.093 34.409 1.854C34.748 1.602 34.97 1.38101 35.142 1.24301C35.268 1.11801 35.336 1.04998 35.336 1.04998L35.395 0.989987C35.907 0.476987 36.86 0.384012 37.526 0.778012C38.19 1.17201 38.313 1.906 37.799 2.418C37.758 2.462 37.704 2.506 37.656 2.544C37.656 2.544 37.523 2.643 37.276 2.828C37.041 2.979 36.698 3.20001 36.26 3.48001C35.806 3.72701 35.283 4.06 34.63 4.371C33.96 4.653 33.257 5.04199 32.412 5.34799C31.554 5.62999 30.688 6.045 29.666 6.277C29.164 6.403 28.645 6.536 28.116 6.669C27.592 6.808 27.056 6.95199 26.469 7.02099C25.326 7.17499 24.11 7.43101 22.948 7.50201C21.768 7.56101 20.565 7.61899 19.365 7.67999C18.149 7.61899 16.929 7.55801 15.731 7.49701C14.534 7.42301 13.379 7.169 12.249 7.018C11.676 6.953 11.142 6.808 10.615 6.669C10.088 6.536 9.56799 6.403 9.06499 6.277C8.04399 6.046 7.176 5.63099 6.32 5.34799C5.475 5.04199 4.77198 4.654 4.10198 4.371C3.44998 4.061 2.92799 3.72801 2.46999 3.48001C2.02099 3.18801 1.665 2.95798 1.424 2.79998C1.22 2.65198 1.10998 2.57199 1.10998 2.57199C0.499976 2.12999 0.468981 1.38999 1.04598 0.920987C1.61898 0.449987 2.57899 0.428999 3.18999 0.870999C3.23999 0.906999 3.287 0.944996 3.329 0.986996L3.36599 1.01901Z" fill="#BD614F"/>
</svg>
